<?xml version="1.0" encoding="utf-8"?>

<!DOCTYPE svg PUBLIC "-//W3C//DTD SVG 1.1//EN" "http://www.w3.org/Graphics/SVG/1.1/DTD/svg11.dtd">
<!-- Uploaded to: SVG Repo, www.svgrepo.com, Generator: SVG Repo Mixer Tools -->
<svg height="800px" width="800px" version="1.1" id="_x32_" xmlns="http://www.w3.org/2000/svg" xmlns:xlink="http://www.w3.org/1999/xlink" 
	 viewBox="0 0 512 512"  xml:space="preserve">
<style type="text/css">
	.st0{fill:black;}
</style>
<g>
	<path class="st0" d="M459.279,63.989H193.251c-20.346,0-39.7,8.82-53.054,24.186L4.314,244.473c-5.752,6.61-5.752,16.443,0,23.06
		l135.883,156.306c13.354,15.359,32.708,24.172,53.054,24.172h266.028c29.116,0,52.721-23.605,52.721-52.721V116.716
		C512,87.593,488.395,63.989,459.279,63.989z M360.581,338.701l-51.687-51.672l-51.672,51.658l-31.03-31.015l51.673-51.687
		L226.2,204.32l31.022-31.022l51.672,51.673l51.679-51.687l31.022,31.036l-51.687,51.679l51.701,51.673L360.581,338.701z"/>
</g>
</svg>